<svg xmlns="http://www.w3.org/2000/svg" viewBox="0 0 120.627 55.153">
  <g id="g62" transform="translate(0 -.02)">
    <g id="g51" transform="translate(0 10.567)">
      <path id="path49" fill="#fff" fill-rule="evenodd" d="M12.07 60.767c-1.268 1.521-3.88 1.445-5.807-.178S3.8 56.431 5.1 54.884c1.116-1.319 3.22-1.445 5.021-.38l4.59-5.477-7.864-9.357 1.445-1.217 7.658 9.129v-12.7L0 31.2v34.512l15.95-1.293V50.548l-4.362 5.2c1.344 1.596 1.598 3.701.482 5.019ZM7 41.039l2.916 3.5-2.588 2.205-.964-1.166 1.446-1.217-.964-1.166L5.4 44.411l-.964-1.166L7 41.039Zm14.784 13.49-4.59-5.477 7.861-9.357-1.445-1.217-7.658 9.1v2.967l4.362 5.224c-1.344 1.6-1.6 3.7-.507 5.021 1.268 1.521 3.88 1.445 5.807-.178s2.46-4.159 1.166-5.706c-1.093-1.315-3.197-1.442-4.998-.377Zm2.762 4.771c-1.217 1.014-2.739 1.192-3.4.38-.685-.811-.254-2.282.964-3.3 1.192-1.014 2.739-1.192 3.4-.38s.228 2.282-.964 3.3Zm1.978-14.885.964-1.166-2.612-2.206-2.916 3.5 2.612 2.206.964-1.166-1.446-1.222.964-1.166c.025-.001 1.47 1.216 1.47 1.216ZM9.788 56.38C8.6 55.366 7.049 55.189 6.39 56c-.685.811-.254 2.282.964 3.3s2.739 1.192 3.4.38c.685-.811.254-2.282-.964-3.3Z" transform="translate(0 -31.2)"/>
    </g>
    <g id="g58" transform="translate(15.944 .02)">
      <path id="path56" fill="#fff" fill-rule="evenodd" d="M74.636 0v55.153l-13.668-5.68V17.37L47.3 14.226V6.669Z" transform="translate(-47.3)"/>
    </g>
    <path id="path60" fill="#fff" fill-rule="evenodd" d="M224.5 98.741h3.6v12.552h5.072v2.764H224.5V98.741Zm16.483 8.622c0-1.445-.38-2.815-1.8-2.815-1.775 0-1.775 2.206-1.775 2.815Zm3.17 1.9h-6.745a2.553 2.553 0 0 0 2.84 2.612 6.841 6.841 0 0 0 3.22-.913l.076 2.612a11.046 11.046 0 0 1-3.626.659c-4.007 0-5.782-2.434-5.782-5.934 0-3.068 1.8-5.858 5.072-5.858 1.04 0 4.97 0 4.97 5.984l-.025.837Zm2.586 4.793h3.474v-11.435h-3.474Zm0-13.389h3.474V97.6h-3.474Zm11.411 11.083c1.42 0 1.724-2.054 1.724-3.373 0-1.826-.33-3.525-1.724-3.525-1.547 0-1.674 1.724-1.674 3.525 0 1.166.1 3.373 1.674 3.373Zm5.2-.254c0 1.445.051 2.054.076 2.561h-3.3a14.663 14.663 0 0 1-.076-1.826H260a3.252 3.252 0 0 1-3.119 2c-2.561 0-4.007-2.536-4.007-6.162 0-3.068 1.141-5.629 4.007-5.629a2.939 2.939 0 0 1 2.941 1.876h.051V97.6h3.474Zm9.433-4.133c0-1.445-.38-2.815-1.8-2.815-1.775 0-1.775 2.206-1.775 2.815Zm3.17 1.9h-6.745a2.553 2.553 0 0 0 2.84 2.612 6.841 6.841 0 0 0 3.22-.913l.076 2.612a11.046 11.046 0 0 1-3.626.659c-4.007 0-5.782-2.434-5.782-5.934 0-3.068 1.8-5.858 5.072-5.858 1.04 0 4.97 0 4.97 5.984-.027.003-.027.84-.027.84Zm8.8-2.257c0-1.42-.634-1.8-1.344-1.8-1.116 0-1.521.964-1.521 2.434v6.416h-3.474V105c0-1.09-.025-1.8-.076-2.384h3.17q.076.761.076 1.9h.051a3.119 3.119 0 0 1 3.22-2.079c2.536 0 3.347 1.851 3.347 4.133v7.481h-3.474l.025-7.049Z" transform="translate(-167.572 -72.836)"/>
  </g>
</svg>