<svg xmlns="http://www.w3.org/2000/svg" role="img" viewBox="-147.50 169.00 624.00 203.00"><title>Port nieuw</title><style>svg {enable-background:new -153 -46 652 652}</style><path fill="#009cd6" d="M-86.8 337.2l-23.4 13.7c-7.5 4.8-17.5 2.6-22.3-5-1.7-2.6-2.5-5.6-2.5-8.7.1-5.8 3.2-11.1 8.3-14l40-23.6 40.7 23 64.3-37.5c2.6-1.6 5.6-2.5 8.6-2.5 8.9 0 16.2 7.2 16.2 16.2 0 5.9-3.2 11.3-8.3 14.2L-46 360.3l-40.8-23.1zm0-47.2l-23.4 13.7c-2.6 1.6-5.6 2.5-8.7 2.5-8.9 0-16.2-7.3-16.2-16.2 0-5.8 3.1-11.2 8.2-14.1l40-23.5 40.7 23L18.2 238c7.7-4.6 17.7-2 22.2 5.7s2 17.7-5.7 22.2l-80.8 47.2-40.7-23.1zm81.6-85.7l23.4-13.8c7.7-4.6 17.7-2 22.2 5.7s2 17.7-5.7 22.2l-39.9 23.4-40.7-23-64.3 37.4c-7.6 4.8-17.6 2.5-22.4-5.1-1.6-2.6-2.5-5.6-2.5-8.6.1-5.8 3.2-11.1 8.3-14l80.9-47.5 40.7 23.3z"/><path fill="#002d60" d="M93.9 209h19.9c10.7 0 18.2 5 18.2 16.4s-6.3 17-17.7 17h-7.4V259h-13v-50zm13 22.9h2.3c4.7 0 9.4 0 9.4-6.1s-4.4-6.3-9.4-6.3H107l-.1 12.4zm68.3 10c0 11.5-9.6 18.1-20.5 18.1s-20.5-6.5-20.5-18.1 9.6-18.2 20.5-18.2c11 0 20.5 6.6 20.5 18.2zm-28.2 0c0 4.3 3.5 7.8 7.8 7.8s7.8-3.5 7.8-7.8-3.5-7.8-7.8-7.8-7.8 3.5-7.8 7.8zm45.9-11.4c2.2-3.9 6.5-6.3 11-6h2.3V236c-1.6-.8-3.3-1.2-5.1-1.1-6.7 0-8.3 4.4-8.3 10.3v13.7H181v-34h11.9v5.6zm34.5 28.4h-12.1v-24.1h-3.9v-9.9h3.9v-10.2h12.1v10.2h7v9.9h-7v24.1zm71.2-17c0 11.5-9.6 18.1-20.5 18.1s-20.5-6.5-20.5-18.1 9.5-18.2 20.5-18.2 20.5 6.6 20.5 18.2zm-28.2 0c0 4.3 3.5 7.8 7.8 7.8s7.8-3.5 7.8-7.8-3.5-7.8-7.8-7.8-7.8 3.5-7.8 7.8zm48.9 17h-12.1v-24.1H303v-9.9h4.3v-4.3c-1.2-8.4 4.6-16.1 13-17.3.8-.1 1.6-.2 2.4-.2 1.8 0 3.6.4 5.2 1.2v10.5c-1.3-.7-2.8-1-4.2-1.1-3.1 0-4.2 1.8-4.2 5.7v5.5h8.4v9.9h-8.4v24.1zm-183.8 66.3h-16.2L107 306v19.2H93.9v-49.9h19.4c9.9 0 17.4 4.7 17.4 15.4.4 6.7-4.3 12.7-10.9 14l15.7 20.5zm-28.6-27.6h1.3c4.3 0 9-.8 9-6.2s-4.8-6.2-9-6.2h-1.3v12.4zm70.6 10.6c0 11.5-9.6 18.1-20.5 18.1s-20.5-6.5-20.5-18.1S146.1 290 157 290s20.5 6.6 20.5 18.2zm-28.2 0c0 4.3 3.5 7.8 7.8 7.8s7.8-3.5 7.8-7.8-3.5-7.8-7.8-7.8-7.8 3.5-7.8 7.8zm48.8 17H186v-24.1h-3.8v-9.9h3.8V281h12v10.2h7v9.9h-7l.1 24.1zm29.2 0h-12.1v-24.1h-3.9v-9.9h3.9V281h12.1v10.2h7v9.9h-7v24.1zm47.6-15h-25.4c-.5 3.7 2.2 7.1 5.9 7.6.6.1 1.1.1 1.7 0 2.4.2 4.6-1 5.8-3.1h11.6c-1.9 8-9.6 11.7-17.4 11.7-11.3 0-19.7-6.3-19.7-18.1s7.7-18.2 18.8-18.2c11.8 0 18.6 7.3 18.6 18.9l.1 1.2zm-11.2-7c-1-3.9-5-6.1-8.8-5.1-2.5.7-4.4 2.6-5.1 5.1h13.9zm30.7-6.4c2.2-3.9 6.5-6.3 11-6h2.3v11.6c-1.6-.8-3.3-1.2-5.1-1.1-6.7 0-8.3 4.4-8.3 10.3v13.7h-12.1v-34h12.1l.1 5.5zm45.6 24.6c-2.4 3.3-6.2 5.1-10.3 4.9-9.6-.1-17.3-8.1-17.2-17.7v-.5c-.4-9.6 7.1-17.7 16.8-18.1h.3c4-.1 7.8 1.5 10.5 4.4V270h12.1v55.2H340v-3.8zm-15.1-13.2c0 4.3 3.5 7.8 7.8 7.8s7.8-3.5 7.8-7.8-3.5-7.8-7.8-7.8c-4.4 0-7.8 3.5-7.8 7.8zm73.9 17h-12.1v-3.8c-2.4 3.3-6.2 5.1-10.3 4.9-9.6-.1-17.3-8.1-17.2-17.7v-.5c-.4-9.6 7.1-17.7 16.8-18.1h.3c4-.1 7.8 1.5 10.5 4.4v-3.3h12v34.1zm-27.2-17c0 4.3 3.5 7.8 7.8 7.8s7.8-3.5 7.8-7.8-3.5-7.8-7.8-7.8c-4.3.1-7.8 3.5-7.8 7.8zm47.9-12.8c2.4-3.5 6.5-5.5 10.7-5.4 4.8-.2 9.3 2.3 11.6 6.5 2.4-4.1 6.8-6.6 11.5-6.5 8.6 0 11.6 5.6 11.6 13.5v21.7h-12.1v-16.3c0-3.5 0-9.3-5-9.3s-5.8 5.2-5.8 9.3v16.2h-12v-16.2c0-3.8 0-9.6-5.4-9.6s-5.4 5.8-5.4 9.6v16.2h-12.1v-34h12.1l.3 4.3z"/></svg>