<svg width="160" height="79" viewBox="0 0 160 79" xmlns="http://www.w3.org/2000/svg"><path d="M20.811 75.323h-2.2v-1.611h4.14v3.809c-.4.391-.984.734-1.75 1.033a6.304 6.304 0 0 1-2.32.446c-.998 0-1.864-.208-2.607-.63a4 4 0 0 1-1.668-1.8 5.823 5.823 0 0 1-.559-2.547c0-.995.208-1.88.625-2.652a4.18 4.18 0 0 1 1.825-1.78c.612-.319 1.368-.478 2.279-.478 1.181 0 2.104.25 2.77.747.665.497 1.09 1.186 1.283 2.064l-1.913.357a2.032 2.032 0 0 0-.756-1.111c-.368-.27-.831-.407-1.384-.407-.841 0-1.511.267-2.005.801-.495.535-.743 1.33-.743 2.383 0 1.133.25 1.985.754 2.553.5.565 1.16.848 1.976.848.4 0 .803-.079 1.209-.237.407-.158.751-.35 1.043-.577v-1.21h.001Zm6.12-1.728c.26-.292.589-.436.99-.436.375 0 .687.138.95.414.26.275.395.68.408 1.21h-2.73c-.003-.502.124-.897.383-1.188Zm1.802 3.794a1.117 1.117 0 0 1-.72.234 1.38 1.38 0 0 1-1.054-.451c-.282-.303-.431-.724-.442-1.268h4.575c.027-1.405-.26-2.45-.852-3.13-.595-.678-1.402-1.018-2.431-1.018-.91 0-1.669.324-2.265.975-.6.649-.896 1.548-.896 2.696 0 .959.225 1.756.682 2.387.572.786 1.462 1.18 2.664 1.18.757 0 1.388-.173 1.894-.525.5-.35.869-.858 1.105-1.529l-1.819-.306c-.098.346-.247.6-.441.755Zm4.374 1.448v-6.925h1.683v.946c.601-.735 1.32-1.102 2.15-1.102.44 0 .824.09 1.148.272.328.184.593.462.798.83.306-.368.63-.646.985-.83.35-.182.722-.272 1.123-.272.508 0 .936.103 1.284.311.353.204.615.509.787.907.126.298.187.775.187 1.437v4.428h-1.82v-3.96c0-.687-.065-1.13-.191-1.331-.17-.261-.43-.389-.78-.389-.255 0-.494.078-.72.235-.227.154-.387.383-.487.686-.1.303-.148.78-.148 1.432v3.327H37.28v-3.795c0-.674-.034-1.11-.096-1.304a.837.837 0 0 0-.302-.437c-.14-.095-.323-.143-.556-.143-.282 0-.538.074-.76.228-.226.152-.39.371-.483.657-.096.288-.147.766-.147 1.431v3.364h-1.828v-.003Zm14.383-5.242a1.26 1.26 0 0 1 .989-.436c.37 0 .686.138.948.414.261.275.397.68.41 1.21h-2.73c-.003-.502.125-.897.383-1.188Zm1.801 3.794a1.128 1.128 0 0 1-.722.234c-.42 0-.77-.15-1.052-.451-.28-.303-.427-.724-.44-1.268h4.573c.025-1.405-.26-2.45-.854-3.13-.592-.678-1.4-1.018-2.43-1.018-.908 0-1.666.324-2.264.975-.6.649-.896 1.548-.896 2.696 0 .959.224 1.756.682 2.387.572.786 1.463 1.18 2.663 1.18.758 0 1.39-.173 1.895-.525.498-.35.869-.858 1.106-1.529l-1.818-.306c-.098.346-.248.6-.443.755Zm6.263-3.794a1.26 1.26 0 0 1 .988-.436c.37 0 .689.138.949.414.261.275.394.68.406 1.21h-2.725c-.005-.502.122-.897.382-1.188Zm1.801 3.794a1.134 1.134 0 0 1-.723.234c-.42 0-.771-.15-1.049-.451-.284-.303-.43-.724-.443-1.268h4.574c.025-1.405-.26-2.45-.856-3.13-.59-.678-1.4-1.018-2.427-1.018-.912 0-1.668.324-2.267.975-.598.649-.897 1.548-.897 2.696 0 .959.227 1.756.685 2.387.573.786 1.462 1.18 2.659 1.18.76 0 1.392-.173 1.898-.525.502-.35.874-.858 1.108-1.529l-1.82-.306c-.102.346-.247.6-.442.755Zm10.784-2.855v4.305h-1.825v-3.534c0-.75-.038-1.233-.114-1.453-.08-.22-.207-.39-.38-.512a1.094 1.094 0 0 0-.637-.181 1.44 1.44 0 0 0-.848.261 1.29 1.29 0 0 0-.518.69c-.092.287-.138.819-.138 1.592v3.138h-1.826v-6.928h1.694v1.015c.605-.782 1.362-1.172 2.276-1.172.403 0 .768.072 1.1.216.338.146.59.331.758.559.173.226.292.483.361.77.064.29.097.7.097 1.234Zm23.616-3.64c.779 0 1.246.012 1.404.031.311.055.55.178.725.378.167.198.254.454.254.778 0 .288-.063.527-.195.718-.128.193-.31.324-.538.403-.232.08-.81.118-1.728.118h-1.422v-2.425h1.5Zm-1.5 3.953h.39c.439 0 .764.034.969.107.2.072.392.202.576.398.183.192.52.662 1.012 1.405l1.392 2.08h2.297l-1.162-1.866c-.459-.744-.827-1.26-1.095-1.55a4.53 4.53 0 0 0-1.03-.803c.837-.121 1.464-.416 1.886-.884.418-.468.63-1.061.63-1.776 0-.564-.142-1.07-.417-1.509a2.174 2.174 0 0 0-1.108-.914c-.462-.172-1.2-.26-2.218-.26h-4.05v9.562h1.925v-3.99h.003Zm10.095-1.05a1.54 1.54 0 0 1 1.2-.55c.477 0 .878.184 1.199.55.324.365.483.886.483 1.564 0 .696-.158 1.228-.483 1.592a1.53 1.53 0 0 1-1.198.548c-.479 0-.876-.182-1.201-.548-.324-.364-.487-.892-.487-1.578 0-.687.163-1.213.487-1.578ZM98.44 77.3c.3.554.734.975 1.31 1.261a3.95 3.95 0 0 0 1.81.432c1.022 0 1.868-.345 2.542-1.032.67-.69 1.007-1.558 1.007-2.605 0-1.04-.33-1.9-.995-2.581-.672-.678-1.523-1.019-2.566-1.019-.676 0-1.29.15-1.838.45a3.093 3.093 0 0 0-1.27 1.302 3.78 3.78 0 0 0-.447 1.77c-.002.793.15 1.468.447 2.022Zm10.683-5.39h1.247v1.462h-1.247v2.792c0 .564.01.894.034.989a.415.415 0 0 0 .162.23.52.52 0 0 0 .308.09c.168 0 .416-.058.736-.176l.155 1.423a3.638 3.638 0 0 1-1.443.272 2.3 2.3 0 0 1-.888-.165c-.265-.111-.462-.256-.585-.432-.124-.177-.21-.414-.257-.714-.039-.213-.06-.645-.06-1.29V73.37h-.837v-1.458h.837v-1.378l1.835-1.068v2.446h.003Zm5.607 0h1.246v1.462h-1.246v2.792c0 .564.013.894.034.989a.403.403 0 0 0 .166.23.498.498 0 0 0 .305.09c.167 0 .413-.058.731-.176l.16 1.423a3.633 3.633 0 0 1-1.443.272c-.33 0-.627-.056-.889-.165-.267-.111-.462-.256-.583-.432-.126-.177-.21-.414-.26-.714-.036-.213-.056-.645-.056-1.29V73.37h-.84v-1.458h.84v-1.378l1.832-1.068v2.446h.003Zm5.095 1.684c.26-.292.59-.436.988-.436.37 0 .69.138.949.414.26.275.395.68.406 1.21h-2.728c-.004-.502.126-.897.385-1.188Zm1.798 3.794a1.116 1.116 0 0 1-.72.234c-.418 0-.77-.15-1.05-.451-.281-.303-.43-.724-.442-1.268h4.571c.028-1.405-.254-2.45-.848-3.13-.595-.678-1.405-1.018-2.43-1.018-.915 0-1.672.324-2.27.975-.596.649-.895 1.548-.895 2.696 0 .959.229 1.756.682 2.387.577.786 1.464 1.18 2.665 1.18.755 0 1.388-.173 1.894-.525.502-.35.873-.858 1.107-1.529l-1.818-.306c-.103.346-.246.6-.446.755Zm-49.055-5.477h1.253v1.461h-1.253v2.792c0 .564.013.894.036.989.023.092.08.168.166.23a.504.504 0 0 0 .304.09c.171 0 .415-.058.74-.176l.155 1.423a3.661 3.661 0 0 1-1.446.272 2.3 2.3 0 0 1-.888-.165c-.265-.111-.456-.256-.58-.432-.127-.177-.21-.414-.261-.714-.036-.213-.057-.645-.057-1.29V73.37h-.835v-1.458h.835v-1.378l1.828-1.068v2.446h.003Zm5.098 1.683c.26-.292.59-.436.99-.436.372 0 .688.138.948.414.26.275.397.68.412 1.21h-2.73c-.006-.502.12-.897.38-1.188Zm1.8 3.794a1.116 1.116 0 0 1-.721.234c-.422 0-.772-.15-1.053-.451-.284-.303-.428-.724-.44-1.268h4.57c.029-1.405-.258-2.45-.85-3.13-.593-.678-1.401-1.018-2.43-1.018-.914 0-1.668.324-2.267.975-.599.649-.893 1.548-.893 2.696 0 .959.228 1.756.679 2.387.577.786 1.466 1.18 2.664 1.18.758 0 1.39-.173 1.892-.525.507-.35.877-.858 1.109-1.529l-1.816-.306c-.101.346-.248.6-.445.755Zm48.417-.69v2.138h-1.826v-6.925h1.695v.985c.293-.466.553-.773.786-.919a1.43 1.43 0 0 1 .787-.222c.414 0 .816.115 1.202.345l-.564 1.598c-.31-.201-.596-.301-.858-.301-.257 0-.469.07-.652.212-.177.142-.316.396-.419.766-.1.37-.15 1.146-.15 2.322Zm6.096-3.02c.29-.35.654-.52 1.089-.52.448 0 .81.174 1.1.525.282.349.427.921.427 1.717 0 .713-.147 1.249-.44 1.608-.299.359-.653.537-1.073.537-.529 0-.941-.238-1.234-.716-.205-.33-.308-.866-.308-1.605-.001-.687.146-1.203.439-1.546Zm2.605-4.402v3.443c-.56-.643-1.227-.964-1.998-.964-.84 0-1.535.306-2.086.915-.55.61-.824 1.505-.824 2.679 0 1.147.28 2.041.846 2.685.567.64 1.245.96 2.04.96.387 0 .776-.096 1.156-.29a2.735 2.735 0 0 0 1.002-.886v1.018h1.694v-9.562h-1.83v.002Zm8.03 7.494a1.168 1.168 0 0 1-.439.607 1.57 1.57 0 0 1-.94.325c-.297 0-.539-.092-.73-.281a.9.9 0 0 1-.283-.665c0-.261.12-.475.358-.646.152-.104.488-.21.993-.32a11.95 11.95 0 0 0 1.111-.279v.367c-.001.437-.026.736-.07.892Zm-1.933-3.422c.182-.129.437-.191.758-.191.486 0 .81.072.982.223.176.15.262.402.262.755v.18c-.33.142-.92.289-1.774.452-.635.12-1.115.263-1.451.426a1.819 1.819 0 0 0-.783.706 1.963 1.963 0 0 0-.278 1.047c0 .59.202 1.08.613 1.467.408.387.968.58 1.68.58.4 0 .777-.076 1.132-.227a3.32 3.32 0 0 0 1.006-.685c.014.035.03.108.062.215.068.24.129.421.177.542h1.806a3.905 3.905 0 0 1-.33-.93c-.056-.288-.084-.737-.084-1.347l.02-2.139c0-.794-.082-1.342-.248-1.642-.162-.296-.44-.542-.837-.735-.403-.194-1.009-.29-1.82-.29-.896 0-1.571.161-2.026.482-.455.321-.776.818-.964 1.488l1.658.298c.111-.32.256-.547.439-.675Zm6.124 5.488v-6.925h1.681v.946c.605-.735 1.32-1.102 2.152-1.102.438 0 .824.09 1.15.272.32.184.59.462.8.83.3-.368.627-.646.981-.83.349-.182.72-.272 1.123-.272.51 0 .936.103 1.287.311.351.204.61.509.782.907.127.298.188.775.188 1.437v4.428h-1.824v-3.96c0-.687-.063-1.13-.188-1.331-.168-.261-.43-.389-.779-.389-.255 0-.49.078-.72.235-.227.154-.386.383-.489.686-.102.303-.148.78-.148 1.432v3.327h-1.823v-3.795c0-.674-.033-1.11-.098-1.304a.805.805 0 0 0-.306-.437c-.134-.095-.318-.143-.553-.143-.281 0-.534.074-.761.228a1.253 1.253 0 0 0-.483.657c-.098.288-.147.766-.147 1.431v3.364h-1.825v-.003ZM1.003 9.296c1.17.435 2.103.622 3.348.867.219.043.452.091.693.141a7.062 7.062 0 0 0-.82-.576c-1.294-.78-2.45-.803-3.221-.432Zm6.332 3.925a11.165 11.165 0 0 0-.728-1.24c-1.146-.272-2.033-.446-2.805-.599-1.402-.275-2.373-.47-3.742-1.039a1.62 1.62 0 0 0 .105 1.144c1.213.46 2.162.652 3.439.902.967.19 2.12.421 3.731.832Zm.66 1.44a66.39 66.39 0 0 0-3.423-.85c.464.173.998.397 1.637.71 1.522.744 2.684 2.316 1.807.194l-.021-.053Zm76.878 38.31a205.99 205.99 0 0 0 5.845 2.608 11.55 11.55 0 0 1-2.672-.168l-.414-.08-2.759-2.36ZM104.654.595s1.448.539 3.672 1.53c1.306.58 2.86 1.322 3.853 1.975a18.65 18.65 0 0 1 2.325 1.778c-2.054-.828-4.23-1.76-6.607-2.827.324.451.611.962.871 1.522a155.95 155.95 0 0 0 7.423 3.048c.398.489.76.989 1.081 1.5-2.548-.93-5.14-1.971-7.956-3.19.152.45.292.922.418 1.415a137.274 137.274 0 0 0 8.348 3.264c.192.418.351.84.498 1.267a135.657 135.657 0 0 1-8.575-3.306c.07.374.133.757.188 1.147l.021.173c3.013 1.26 5.89 2.36 8.749 3.324.084.377.148.762.198 1.144a131.835 131.835 0 0 1-8.828-3.313c.028.41.044.827.05 1.248a129.923 129.923 0 0 0 8.882 3.293c.015.342.019.685.005 1.03 0 .017-.003.031-.005.05a130.356 130.356 0 0 1-8.908-3.272c-.018.396-.052.793-.097 1.192a126.272 126.272 0 0 0 8.927 3.249c-.032.347-.076.692-.127 1.038a131.994 131.994 0 0 1-8.955-3.247 18.29 18.29 0 0 1-.24 1.128A126.572 126.572 0 0 0 118.854 20c-.07.335-.158.667-.248 1a127.228 127.228 0 0 1-9.026-3.247c-.112.358-.233.716-.377 1.072a126.954 126.954 0 0 0 9.059 3.257c-.114.317-.231.64-.375.957a128.25 128.25 0 0 1-9.092-3.274c-.16.343-.34.682-.527 1.018a127.889 127.889 0 0 0 9.108 3.284c-.162.3-.346.603-.532.907a128.48 128.48 0 0 1-9.123-3.304c-.209.314-.432.623-.667.929a128.008 128.008 0 0 0 9.137 3.352c-.21.287-.427.575-.663.864a130.45 130.45 0 0 1-9.165-3.392c-.267.294-.548.582-.847.862 4.099 1.709 7.657 3.014 11.316 4.144a2196.75 2196.75 0 0 0 15.754 4.7c3.168.923 6.335 1.75 9.838 2.284a37.293 37.293 0 0 1-8.767-.908 91.69 91.69 0 0 1-1.358-.388c-1.394-.406-3.722-1.096-6.172-1.825l-.82-.245-.411-.122-.719-.215a1486.06 1486.06 0 0 1-7.645-2.298c-3.824-1.182-7.548-2.553-11.868-4.37-.324.267-.664.527-1.02.778 3.162 1.352 5.994 2.463 8.703 3.41l.675.232 1.03 1.432c-3.047-1-6.15-2.158-9.638-3.619l-.811-.342.922 1.624c3.55 1.482 6.765 2.701 9.927 3.733l.79.255.996 1.382c-3.235-.982-6.46-2.133-9.935-3.53l-.955-.386.923 1.625c3.817 1.544 7.117 2.72 10.424 3.707l.709.209.972 1.346-.18-.05c-3.38-.942-6.614-2.03-10.264-3.45l-.85-.334.905 1.599c2.687 1.05 5.67 2.138 8.795 3.054l.941.27.652.18.992.276.15.041.955 1.328-2.372-.653-.65-.182c-2.745-.765-5.344-1.66-7.763-2.563l-.9-.34.889 1.56c2.063.793 4.114 1.537 6.236 2.172l1.067.309.322.09c1.11.31 2.195.612 3.258.904l1.056.288.945 1.318c-1.424-.38-2.884-.782-4.392-1.202l-1.14-.319-.324-.089a71.41 71.41 0 0 1-5.22-1.705l-1.02-.377.93 1.64a66.59 66.59 0 0 0 4.842 1.583c2.369.66 4.558 1.271 6.66 1.818l.783.201.927 1.29c-2.714-.666-5.524-1.448-8.642-2.319-2.438-.68-4.8-1.536-7.019-2.396-.852.058-1.65.186-2.386.358 2.759 1.14 5.752 2.29 8.934 3.177 3.067.856 6.029 1.68 8.94 2.378l1.244.29.9 1.25c-.04-.006-.076-.01-.118-.019-3.657-.794-7.369-1.83-11.241-2.91-3.705-1.035-7.122-2.407-10.236-3.714-.567.2-1.088.417-1.543.633 3.56 1.553 7.26 3.09 11.309 4.22 1.516.422 2.967.83 4.375 1.209a26.117 26.117 0 0 0-2.818.291l-1.83-.51c-4.403-1.229-8.366-2.92-12.2-4.599a9.981 9.981 0 0 0-1.16.781l-.007.006-3.842-7.678-6.372-2.98s-1.105-.522-1.127-.535c-.26-.14-.54-.287-.815-.43l-.404-.21v1.284c.423.222.864.457.927.492l.008.004 2.151 1.02 5.642 2.65v1.135l-6.082-2.858-2.15-1.022-.022-.01-.474-.257v1.3c.08.044.158.081.184.092l.01.003 3.07 1.46 5.464 2.566v1.134l-5.902-2.77s-1.876-.895-2.718-1.295l-.108-.052v1.325a863.954 863.954 0 0 0 7.809 3.66l.919.423v1.128a625.678 625.678 0 0 1-7.734-3.61l-.994-.471v1.37a344.85 344.85 0 0 0 6.982 3.19l1.746.768v1.12a365.795 365.795 0 0 1-6.997-3.138l-1.731-.804v1.239a284.048 284.048 0 0 0 7.994 3.627l.734.315v1.115a249.282 249.282 0 0 1-7.887-3.525l-.841-.392v1.286a194.655 194.655 0 0 0 7.914 3.458l.814.329v1.107c-2.69-1.068-5.649-2.348-8.728-3.759 0 0-.034.033-.099.088l-.12.1c-.168.132-.428.32-.768.51a192.038 192.038 0 0 0 8.964 3.87l.75.297v1.102c-3.358-1.302-6.97-2.86-10.89-4.683-.43.188-.914.372-1.441.529 4.273 2.006 8.125 3.678 11.763 5.082-.253.195-.597.44-1.037.7-3.679-1.44-7.468-3.107-11.855-5.185-.137-.072-.33-.165-.486-.246a9.941 9.941 0 0 1-2.205.07c.768.389 1.619.822 2.407 1.241 3.993 1.895 7.48 3.441 10.808 4.782-.448.189-.946.36-1.49.501-3.02-1.246-6.192-2.666-9.775-4.364-.373-.2-.735-.385-1.097-.57l-.544-.28-1.835-1.565V23.03c-3.896-1.616-7.56-2.873-11.05-3.77a59.94 59.94 0 0 1 2.054-.506c3.212.92 6.578 2.125 10.114 3.617.435-.242.89-.472 1.356-.676-3.159-1.371-6.183-2.512-9.081-3.422a49.2 49.2 0 0 1 2.241-.345c2.64.904 5.385 1.991 8.232 3.257.694-.2 1.407-.321 2.112-.313a106.726 106.726 0 0 0-7.671-3.211 42.11 42.11 0 0 1 2.584-.102c2.803 1.119 5.926 2.534 8.953 4.037a412.91 412.91 0 0 0 1.686-.401c-11.91-6.107-22.115-9.303-31.056-9.717-1.674-.076-5.196-.114-9.655-.16l-1.38-.015a56.514 56.514 0 0 1 3.114-.994c3.645.039 6.498.076 7.966.143 9.357.433 20.03 3.849 32.51 10.372.53-.136 1.082-.28 1.63-.427C81.312 13.48 70.346 9.884 60.817 9.443c-.92-.041-2.402-.07-4.274-.097 8.037-1.215 19.433.136 39.121 10.665 1.216-.349 2.297-.692 2.958-.982a3.412 3.412 0 0 0 1.166-.874c-.545-.262-1.15-.557-1.718-.833l-2.355-1.14C85.378 10.653 77.52 7.355 70.6 5.74c-.029-.303.147-.64.458-.952 6.797 1.617 14.473 4.822 24.423 10.106l.698.372 2.338 1.133c.63.31 1.27.617 1.868.903.84-1.52 1.13-3.685.797-5.64-.284-.138-.64-.315-.916-.45l-2.319-1.127c-.98-.524-1.98-1.05-2.925-1.537l-1.692.403c1.11.56 2.283 1.163 3.455 1.783l.877.467 2.353 1.134c-.506.13-1.028.262-1.545.397-.616-.299-1.256-.607-1.266-.614a215.28 215.28 0 0 0-5.426-2.799c-.71.168-1.267.302-1.701.403a213.886 213.886 0 0 1 6.712 3.442l-1.479.38c-9.239-4.88-16.484-7.94-22.875-9.571a4.687 4.687 0 0 1 2.116-.202c1.508.202 2.166.392 3.848 1.061l.328.131L97.297.517c3.717-.892 5.96-.472 7.357.078Zm1.919 47.754a79.21 79.21 0 0 0 3.735 1.421c-.723.332-1.137.578-1.245.642l-.067-.023-.067-.024-2.356-2.016Zm-5.462-4.667c4.174 1.796 8.808 3.773 12.625 4.867-.646.172-1.218.359-1.741.543-2.344-.759-4.899-1.767-7.427-2.823l-.84-.353-2.617-2.234Zm26.692-5.187c6.39 1.846 12.186 3.412 19.629 3.58-2.026.376-4.574.494-7.75.122-1.633-.19-3.788-.547-5.904-1.007-1.498-.37-2.98-.774-4.489-1.202-.28-.094-.548-.188-.8-.286-1.203-.465-1.18-.93-.686-1.207Zm10.144.478c4.374.878 9.052 1.338 14.707 1.03a10.4 10.4 0 0 1-1.995 1.112c-6.608.156-11.902-.746-17.08-2.097 1.876.15 3.46.05 4.368-.045Zm-24.923-9.515c.898.304 2.187.73 3.092 1.01.08.023 4.755 1.463 9.667 2.925l.615.183.7.207c3.144.93 6.227 1.818 8.11 2.3 5.777 1.484 11.694 2.333 19.332 1.804a2.26 2.26 0 0 1-.257.512 4.65 4.65 0 0 1-.439.559c-6.613.385-11.971-.252-17.091-1.438-6.966-1.799-17.677-4.868-23.73-8.062Zm13.298.578c2.271.444 4.518.768 6.719.97 5.866 1.72 11.561 3.01 18.872 2.972a30.877 30.877 0 0 1-3.924.928c-7.318-.45-13.148-2.245-19.696-4.263-.647-.2-1.303-.404-1.971-.607Zm-35.984.306-1.693.41c.38.198.804.413 1.198.619l.382.201 1.106.523 5.209 2.432-.837-1.67c-2.338-1.096-5.177-2.418-5.19-2.425-.034-.02-.11-.057-.175-.09Zm52.43.794c4.156.717 8.654 1.025 14.035.653-.633.406-1.35.794-2.136 1.15-6.29.236-11.382-.48-16.261-1.653.826.008 1.642.006 2.45-.018a25.76 25.76 0 0 0 1.912-.132Zm-83.62-1.183a64.88 64.88 0 0 1 7.252 1.429c-1.843.454-3.687.428-5.426-.407-.5-.239-1.127-.624-1.826-1.022Zm34.86-.49-2.09.498 3.046 1.418-.956-1.917Zm65.213.155a7.34 7.34 0 0 1-1.037 1.128c-4.509.351-8.398.23-11.978-.203.881-.22 1.72-.488 2.529-.79 3.157.241 6.593.226 10.486-.135ZM50.778 27.122c1.447.016 2.62.039 3.391.075 5.029.23 10.222 1.175 15.66 2.84-.456.24-.916.457-1.381.656-4.964-1.442-9.716-2.259-14.326-2.471-1.002-.047-2.684-.07-4.819-.086.115-.086.229-.174.359-.261a41.99 41.99 0 0 1 1.116-.753Zm.628 2.383c-.563.264-1.183.557-1.913.871-1.519.645-2.082.15-1.574-.77 1.238-.028 2.4-.063 3.487-.1Zm3.02-4.556c.177.009.342.014.487.018 5.51.254 11.302 1.423 17.493 3.53-.367.244-.739.485-1.114.714-5.804-1.912-11.249-2.977-16.424-3.216a72.258 72.258 0 0 0-2.176-.055 66.94 66.94 0 0 1 1.734-.99Zm105.572 2.632c0 .052.005.107 0 .156a3.43 3.43 0 0 1-.231.903c-3.257.29-6.194.342-8.922.203a23.71 23.71 0 0 0 1.78-.974 64.46 64.46 0 0 0 7.373-.288ZM27.43 26.947c5.256.091 10.559.116 14.997.133-1.056.318-2.14.564-3.188.674-3.732.386-7.896.023-11.809-.807Zm30.796-3.916c5.146.496 10.567 1.783 16.369 3.896-.324.243-.656.49-.99.735-6.13-2.177-11.828-3.413-17.204-3.748a64.52 64.52 0 0 1 1.825-.883Zm101.263 2.627c.182.326.328.666.413 1.004a66.097 66.097 0 0 1-5.787.222c.47-.337.925-.683 1.355-1.039a66.81 66.81 0 0 0 4.019-.187Zm-97.255-4.334c4.526.726 9.298 2.054 14.387 4.006-.298.242-.608.489-.933.743-5.46-2.053-10.546-3.373-15.351-3.982.62-.262 1.252-.517 1.897-.767Zm-42.511 3.253c7.9.272 17.286.285 24.614.296l3.402.008c-.643.33-1.378.682-2.152 1.021l-1.252-.001c-6.409-.009-14.39-.021-21.596-.207a39.708 39.708 0 0 1-3.016-1.117Zm137.81-.661c.49.182.904.485 1.265.839-.754.044-1.478.068-2.194.084.323-.305.634-.612.929-.923Zm-91.109-4.047c3.856.864 7.904 2.156 12.192 3.876-.289.22-.604.465-.938.732-4.674-1.847-9.064-3.164-13.221-3.967a62.934 62.934 0 0 1 1.967-.64Zm-18.01 2.88c.349 0 .69.001 1.023.003.434.058.848.197 1.221.465 0 0-.343.224-.923.564-1.405-.006-2.973-.01-4.671-.011l-.077-.001.057-.013c.751-.218 2.067-.857 3.37-1.007Zm-33.143-.538c5.435.313 12.259.437 18.823.489l.982.007c.59.273 1.69.713 3.08 1.046-6.997-.033-14.731-.118-21.044-.42a19.605 19.605 0 0 1-1.841-1.122Zm-2.424-2.348c7.377.607 18.876.71 28.436.74-.669.276-1.341.558-2.04.851-.117.05-.28.105-.463.167-8.589-.042-18.259-.167-25.056-.665a8.335 8.335 0 0 1-.329-.338 4.433 4.433 0 0 1-.548-.755Zm16.4-1.503c5.936.098 12.085.112 17.228.122-.815.323-1.66.664-2.532 1.022-3.716-.01-7.807-.026-11.888-.078a44.659 44.659 0 0 1-2.808-1.066Zm-15.674-.462c.529.14 2.742.724 5.313 1.185a137.246 137.246 0 0 1-6.458-.43c-.02-.605.35-.967 1.145-.755Zm11.462-1.747c7.407.217 15.779.253 22.45.28 1.598.006 3.078.012 4.418.021-.896.31-1.833.648-2.8 1.013-.53-.003-1.068-.006-1.625-.007-6.133-.026-13.694-.057-20.647-.235a19.369 19.369 0 0 1-1.796-1.072Zm-2.411-2.224c8.356.346 18.516.41 25.832.456 4.704.03 8.42.051 10.174.133.043.001.08.006.119.006-1.21.252-2.453.562-3.741.937-1.803-.022-4.03-.033-6.56-.051-7.402-.045-16.87-.104-24.87-.41a7.49 7.49 0 0 1-.954-1.07Zm23.649-1.64 3.414.034c4.469.048 7.995.084 9.69.163 3.139.142 6.426.63 9.878 1.449a35.827 35.827 0 0 0-5.919-.057 48.173 48.173 0 0 0-4.006-.367c-1.677-.076-5.2-.115-9.655-.16-2.022-.02-4.203-.043-6.461-.072a47.276 47.276 0 0 0 3.059-.99Zm-24.487-.614c2.82.144 5.91.257 9.056.343.435.432.99.786 1.634 1.075-3.65-.09-7.232-.21-10.488-.375a3.559 3.559 0 0 1-.202-1.043Zm.507-2.048c2.343.122 4.866.221 7.463.302.07.377.18.723.336 1.043a334.534 334.534 0 0 1-8.197-.332 4.4 4.4 0 0 1 .398-1.013Zm74.26-1.44c.397.208.82.43 1.237.651l.618.33 2.308 1.12c.027.017.094.049.14.075a4.04 4.04 0 0 0-.117-.32c-.93-2.36-3.464-2.003-4.186-1.856Zm-72.608-.546c1.864.09 3.831.168 5.855.233-.07.364-.105.704-.115 1.03a331.539 331.539 0 0 1-6.705-.277c.28-.342.607-.67.965-.986Zm2.726-1.871c1.216.048 2.462.093 3.73.13-.146.355-.265.695-.367 1.024-1.695-.054-3.35-.115-4.935-.187.5-.348 1.028-.671 1.572-.967Zm4.153-.878c-.72-.024-1.436-.047-2.142-.074.59-.239 1.172-.447 1.727-.616.546-.17.722-.078.415.69Z" fill="black" fill-rule="evenodd"></path></svg>