<?xml version="1.0" encoding="UTF-8" standalone="no"?>
<!-- Created with Inkscape (http://www.inkscape.org/) -->

<svg
   xmlns:dc="http://purl.org/dc/elements/1.1/"
   xmlns:cc="http://creativecommons.org/ns#"
   xmlns:rdf="http://www.w3.org/1999/02/22-rdf-syntax-ns#"
   xmlns:svg="http://www.w3.org/2000/svg"
   xmlns="http://www.w3.org/2000/svg"
   xmlns:sodipodi="http://sodipodi.sourceforge.net/DTD/sodipodi-0.dtd"
   xmlns:inkscape="http://www.inkscape.org/namespaces/inkscape"
   width="454.66965"
   height="303.34882"
   id="svg4857"
   version="1.1"
   inkscape:version="0.48.4 r9939"
   sodipodi:docname="Nieuw document 20">
  <defs
     id="defs4859" />
  <sodipodi:namedview
     id="base"
     pagecolor="#ffffff"
     bordercolor="#666666"
     borderopacity="1.0"
     inkscape:pageopacity="0.0"
     inkscape:pageshadow="2"
     inkscape:zoom="0.98994949"
     inkscape:cx="373.79513"
     inkscape:cy="15.777038"
     inkscape:document-units="px"
     inkscape:current-layer="layer1"
     showgrid="false"
     fit-margin-top="0"
     fit-margin-left="0"
     fit-margin-right="0"
     fit-margin-bottom="0"
     inkscape:window-width="1600"
     inkscape:window-height="837"
     inkscape:window-x="-8"
     inkscape:window-y="-8"
     inkscape:window-maximized="1" />
  <metadata
     id="metadata4862">
    <rdf:RDF>
      <cc:Work
         rdf:about="">
        <dc:format>image/svg+xml</dc:format>
        <dc:type
           rdf:resource="http://purl.org/dc/dcmitype/StillImage" />
        <dc:title></dc:title>
      </cc:Work>
    </rdf:RDF>
  </metadata>
  <g
     inkscape:label="Laag 1"
     inkscape:groupmode="layer"
     id="layer1"
     transform="translate(-34.107021,-204.36565)">
    <rect
       style="fill:#ffffff;fill-opacity:1;fill-rule:evenodd;stroke:none"
       id="rect4822"
       width="454.66965"
       height="303.34882"
       x="34.107021"
       y="204.36565" />
    <rect
       style="fill:#078930;fill-opacity:1;fill-rule:evenodd;stroke:none"
       id="rect4824"
       width="458.2052"
       height="103.23759"
       x="30.571501"
       y="202.24431" />
    <path
       style="fill:#0f47af;fill-opacity:1"
       d="m 33.182616,508.13579 c -0.0471,-0.046 -0.0856,-25.3612 -0.0856,-56.2557 l 0,-56.1718 0.41731,-0.2541 c 0.84193,-0.5128 4.06162,-1.9962 5.81006,-2.6768 7.569251,-2.9465 15.665531,-3.8866 23.470321,-2.7252 7.46916,1.1114 14.19851,3.9043 21.13802,8.7728 6.5174,4.5723 12.14929,6.9258 18.635053,7.7873 1.94322,0.2581 6.16422,0.2922 8.01824,0.065 6.13042,-0.7519 11.69884,-2.9506 17.12445,-6.7615 1.96842,-1.3826 5.53871,-3.4626 8.04181,-4.6851 5.49974,-2.6859 10.97516,-4.3304 16.69191,-5.0131 2.21292,-0.2643 7.43813,-0.3006 9.50155,-0.066 5.75862,0.6548 10.78014,2.1285 16.04991,4.7105 2.74616,1.3455 4.34938,2.2888 7.63977,4.4947 3.47729,2.3312 4.51066,2.9356 7.09793,4.1512 5.57329,2.6185 10.31471,3.6391 16.23959,3.4958 4.43649,-0.1074 7.79083,-0.7925 11.86304,-2.4229 3.01967,-1.209 5.32821,-2.5093 9.1614,-5.1601 3.11596,-2.1549 5.32343,-3.4556 8.21755,-4.8421 6.83393,-3.2739 13.28799,-4.7804 20.4797,-4.7804 6.19445,0 11.93619,1.1607 17.7191,3.5821 3.28721,1.3764 6.12604,2.9621 9.69416,5.4147 6.07213,4.1739 12.14943,6.6281 18.74629,7.5704 1.88365,0.269 6.45996,0.3032 8.28175,0.062 1.8429,-0.2442 5.07834,-0.9798 6.70442,-1.5241 4.0789,-1.3656 6.7505,-2.7412 11.32817,-5.8327 3.29808,-2.2273 5.35606,-3.4333 8.09668,-4.7447 6.67462,-3.194 12.41457,-4.5913 19.48381,-4.743 4.5326,-0.097 7.83604,0.2454 11.78972,1.2232 6.14878,1.5208 11.15897,3.898 17.51822,8.3119 5.12095,3.5545 9.24314,5.4882 14.31652,6.716 3.07446,0.744 4.41785,0.8898 8.15335,0.8851 3.59038,0 5.01525,-0.1627 7.96077,-0.8835 4.32881,-1.0591 8.97453,-3.2117 12.68135,-5.8757 4.06727,-2.9231 9.83534,-5.8548 14.7961,-7.5203 5.5832,-1.8744 10.47658,-2.6163 16.34024,-2.4775 4.67897,0.1109 8.18112,0.7001 12.6138,2.1223 4.43319,1.4223 8.15643,3.2195 12.55118,6.0582 l 1.95824,1.2649 -0.0322,54.3748 -0.0322,54.3748 -228.04786,0.032 c -125.42631,0.017 -228.086383,-0.01 -228.133483,-0.053 z"
       id="path4820"
       inkscape:connector-curvature="0" />
  </g>
</svg>
